<?xml version="1.0" encoding="iso-8859-1"?>
<!-- Uploaded to: SVG Repo, www.svgrepo.com, Generator: SVG Repo Mixer Tools -->
<svg version="1.1" id="Layer_1" xmlns="http://www.w3.org/2000/svg" xmlns:xlink="http://www.w3.org/1999/xlink" 
	 viewBox="0 0 512 512" xml:space="preserve">
<g>
	<rect x="78.819" y="179.128" style="fill:#CCCCCC;" width="56.453" height="153.733"/>
	<rect x="37.124" y="200.842" style="fill:#CCCCCC;" width="41.69" height="110.304"/>
</g>
<g>
	<rect x="135.272" y="241.67" style="fill:#FFFFFF;" width="244.934" height="28.66"/>
	<rect x="10.199" y="241.67" style="fill:#FFFFFF;" width="26.925" height="28.66"/>
	<rect x="474.875" y="241.67" style="fill:#FFFFFF;" width="26.925" height="28.66"/>
</g>
<g>
	<rect x="380.206" y="179.128" style="fill:#CCCCCC;" width="52.982" height="153.733"/>
	<rect x="433.181" y="200.842" style="fill:#CCCCCC;" width="41.69" height="110.304"/>
</g>
<g>
	<path style="fill:#603813;" d="M501.801,231.469h-16.726v-30.623c0-5.633-4.567-10.199-10.199-10.199h-31.491v-11.515
		c0-5.633-4.567-10.199-10.199-10.199h-52.982c-5.632,0-10.199,4.566-10.199,10.199v52.336H145.47v-52.336
		c0-5.633-4.566-10.199-10.199-10.199H78.814c-5.633,0-10.199,4.566-10.199,10.199v11.515H37.124
		c-5.633,0-10.199,4.566-10.199,10.199v30.623H10.199C4.566,231.469,0,236.036,0,241.669v28.663c0,5.633,4.566,10.199,10.199,10.199
		h16.726v30.623c0,5.633,4.566,10.199,10.199,10.199h31.491v11.515c0,5.633,4.566,10.199,10.199,10.199h56.457
		c5.633,0,10.199-4.566,10.199-10.199v-52.336h224.533v52.336c0,5.633,4.567,10.199,10.199,10.199h52.982
		c5.632,0,10.199-4.566,10.199-10.199v-11.515h31.491c5.632,0,10.199-4.566,10.199-10.199v-30.623h16.727
		c5.632,0,10.199-4.566,10.199-10.199v-28.663C512,236.036,507.433,231.469,501.801,231.469z M20.398,260.131v-8.264h6.526v8.264
		H20.398z M47.323,211.045h21.292v89.908H47.323V211.045z M89.014,189.331h36.058v133.335H89.014V189.331z M145.47,260.131v-8.264
		h224.533v8.264H145.47z M422.986,322.668h-32.583V189.331h32.583V322.668z M464.677,300.953h-21.292v-89.908h21.292V300.953z
		 M491.602,260.131h-6.526v-8.264h6.526V260.131z"/>
	<path style="fill:#603813;" d="M406.948,240.701c-5.632,0-10.199,4.566-10.199,10.199v56.096c0,5.633,4.567,10.199,10.199,10.199
		c5.632,0,10.199-4.566,10.199-10.199V250.9C417.147,245.267,412.58,240.701,406.948,240.701z"/>
	<path style="fill:#603813;" d="M406.948,210.103c-5.632,0-10.199,4.566-10.199,10.199v3.06c0,5.633,4.567,10.199,10.199,10.199
		c5.632,0,10.199-4.566,10.199-10.199v-3.06C417.147,214.669,412.58,210.103,406.948,210.103z"/>
</g>
</svg>